<svg width="50" height="50" viewBox="0 0 50 50" fill="none" xmlns="http://www.w3.org/2000/svg">
  <path d="M19.4245 8.08225L40.4473 28.6809C45.4327 33.5656 41.9019 41.9178 34.8515 41.9178H30.5755L9.55266 21.3191C4.56733 16.4344 8.09813 8.08224 15.1485 8.08224L19.4245 8.08225Z" fill="#CAC3DC"/>
  <path opacity="0.64" fill-rule="evenodd" clip-rule="evenodd" d="M13.5095 2.28663C8.52414 -2.5981 0 0.861466 0 7.76952V34.1638C0 38.4462 3.54307 41.9178 7.91367 41.9178H30.5755L36.4905 47.7134C41.4758 52.5981 50 49.1385 50 42.2305L50 15.8362C50 11.5538 46.4569 8.08225 42.0863 8.08225L19.4245 8.08225L13.5095 2.28663ZM19.4245 8.08225L15.1485 8.08225C8.09813 8.08225 4.56733 16.4344 9.55266 21.3191L30.5755 41.9178H34.8515C41.9019 41.9178 45.4327 33.5656 40.4473 28.6809L19.4245 8.08225Z" fill="#CAC3DC"/>
</svg>